<svg width="62" height="93" viewBox="0 0 62 93" fill="none" xmlns="http://www.w3.org/2000/svg">
<g clip-path="url(#clip0)">
<path d="M15.503 92.9814C24.0573 92.9814 30.9999 86.0388 30.9999 77.4845V61.9876H15.503C6.94876 61.9876 0.00614929 68.9303 0.00614929 77.4845C0.00614929 86.0388 6.94876 92.9814 15.503 92.9814Z" fill="#0ACF83"/>
<path d="M0.00614929 46.4906C0.00614929 37.9364 6.94876 30.9937 15.503 30.9937H30.9999V61.9875H15.503C6.94876 61.9875 0.00614929 55.0449 0.00614929 46.4906Z" fill="#A259FF"/>
<path d="M0.00611877 15.4969C0.00611877 6.94261 6.94873 0 15.503 0H30.9999V30.9938H15.503C6.94873 30.9938 0.00611877 24.0512 0.00611877 15.4969Z" fill="#F24E1E"/>
<path d="M31 0H46.4969C55.0512 0 61.9938 6.94261 61.9938 15.4969C61.9938 24.0512 55.0512 30.9938 46.4969 30.9938H31V0Z" fill="#FF7262"/>
<path d="M61.9938 46.4906C61.9938 55.0449 55.0512 61.9875 46.4969 61.9875C37.9427 61.9875 31 55.0449 31 46.4906C31 37.9364 37.9427 30.9937 46.4969 30.9937C55.0512 30.9937 61.9938 37.9364 61.9938 46.4906Z" fill="#1ABCFE"/>
</g>
<defs>
<clipPath id="clip0">
<path d="M0 0H62V92.9814H0V0Z" fill="white"/>
</clipPath>
</defs>
</svg>
