<svg width="86" height="95" viewBox="0 0 86 95" fill="none" xmlns="http://www.w3.org/2000/svg">
<g clip-path="url(#clip0)">
<path d="M39.1301 1.20298C41.4684 -0.135437 44.5141 -0.141482 46.8503 1.20298C58.6039 7.84436 70.3611 14.4753 82.1127 21.1207C84.323 22.3658 85.8015 24.8256 85.779 27.3725V67.3296C85.7954 69.9819 84.1709 72.5005 81.839 73.7174C70.124 80.3221 58.4151 86.935 46.7022 93.5397C44.3156 94.9043 41.2088 94.7992 38.8967 93.3228C35.3846 91.2868 31.8664 89.2608 28.3539 87.2268C27.6362 86.7989 26.8271 86.4584 26.3203 85.7625C26.7683 85.1586 27.5694 85.0833 28.2203 84.8197C29.6863 84.3535 31.0328 83.6052 32.3796 82.8791C32.7202 82.646 33.136 82.7353 33.4624 82.9439C36.4657 84.6659 39.4425 86.4379 42.4559 88.1434C43.0987 88.5145 43.7496 88.0218 44.2991 87.7155C55.7951 81.2182 67.3051 74.7454 78.799 68.2461C79.2249 68.0413 79.4604 67.5892 79.4258 67.1227C79.4338 53.9417 79.4278 40.7584 79.4298 27.5774C79.4785 27.0481 79.1722 26.5614 78.6936 26.3448C67.0193 19.7702 55.351 13.1856 43.6788 6.60939C43.4765 6.47035 43.237 6.39576 42.9916 6.3954C42.7461 6.39504 42.5064 6.46893 42.3037 6.60737C30.6314 13.1856 18.9652 19.7763 7.29292 26.3505C6.816 26.5674 6.49592 27.046 6.55268 27.5774C6.55469 40.7584 6.55268 53.9417 6.55268 67.1247C6.53244 67.3523 6.58243 67.5807 6.69593 67.779C6.80942 67.9774 6.98097 68.1362 7.18746 68.2341C10.3023 70.0004 13.4211 71.7542 16.5379 73.5145C18.2938 74.4596 20.4497 75.0212 22.3843 74.2971C24.0915 73.6848 25.2882 71.9427 25.2556 70.13C25.2717 57.0259 25.2475 43.9198 25.2677 30.8178C25.225 30.2361 25.7769 29.7555 26.3425 29.8102C27.8391 29.8001 29.3377 29.79 30.8343 29.8142C31.459 29.8001 31.8889 30.4265 31.8117 31.0126C31.8056 44.1996 31.8278 57.387 31.8016 70.574C31.8056 74.0885 30.3617 77.9126 27.1109 79.6323C23.1061 81.7069 18.1561 81.2669 14.1996 79.2776C10.7745 77.568 7.50586 75.5505 4.14151 73.719C1.80356 72.5089 0.187048 69.9802 0.203506 67.3299V27.3725C0.178988 24.7729 1.71624 22.2684 3.99541 21.0415C15.7083 14.4313 27.4192 7.81614 39.1301 1.20298Z" fill="#8CC84B"/>
<path d="M49.3477 28.8809C54.4562 28.5521 59.9251 28.6861 64.5221 31.2028C68.0812 33.1313 70.0544 37.1788 70.1172 41.1329C70.0178 41.6663 69.4603 41.9605 68.9511 41.9239C67.4689 41.9219 65.9864 41.944 64.5043 41.9138C63.8755 41.938 63.5101 41.3583 63.4312 40.8024C63.0053 38.9105 61.9735 37.0367 60.1928 36.1242C57.4592 34.7555 54.2896 34.8244 51.3088 34.8529C49.1328 34.9685 46.7928 35.1569 44.9492 36.4365C43.5339 37.4058 43.104 39.3626 43.6091 40.9385C44.0854 42.07 45.3916 42.4351 46.4603 42.7716C52.6167 44.3817 59.1405 44.2215 65.1793 46.3405C67.6795 47.2043 70.1253 48.8837 70.9811 51.5014C72.1005 55.0098 71.6098 59.2034 69.1137 62.02C67.0894 64.3378 64.1412 65.5993 61.2007 66.2844C57.2889 67.1567 53.2293 67.1789 49.2567 66.7916C45.5212 66.3657 41.6339 65.3843 38.7502 62.8392C36.2843 60.698 35.0799 57.3619 35.1994 54.142C35.228 53.5982 35.7694 53.219 36.2903 53.2637C37.7829 53.2516 39.2755 53.2475 40.7681 53.2657C41.3642 53.223 41.8062 53.7382 41.8368 54.3001C42.1122 56.1027 42.7896 57.9946 44.3615 59.0634C47.395 61.0204 51.2014 60.8864 54.6749 60.9412C57.5525 60.8136 60.7829 60.7749 63.1312 58.8729C64.3702 57.7881 64.7373 55.9731 64.4025 54.4117C64.0398 53.0934 62.6607 52.4791 61.4764 52.0774C55.399 50.1549 48.8023 50.8525 42.7836 48.6784C40.3402 47.8149 37.9774 46.1823 37.0386 43.6721C35.7288 40.1193 36.329 35.7248 39.0867 33.0033C41.7757 30.2963 45.6572 29.2538 49.3477 28.8806V28.8809Z" fill="#8CC84B"/>
</g>
<defs>
<clipPath id="clip0">
<path d="M0 0H86V94.7137H0V0Z" fill="white"/>
</clipPath>
</defs>
</svg>
