<svg width="512" height="512" viewBox="0 0 512 512" fill="none" xmlns="http://www.w3.org/2000/svg">
<rect width="512" height="512" rx="30" fill="#2B2B2B"/>
<rect x="95.6163" y="94.6163" width="321.767" height="321.767" stroke="white" stroke-width="17.2325"/>
<path d="M208.475 150.8V229.9H193.446L154.009 181.875V229.9H135.929V150.8H151.071L190.395 198.825V150.8H208.475ZM262.333 231.256C251.033 231.256 242.219 228.13 235.891 221.877C229.638 215.624 226.512 206.697 226.512 195.096V150.8H244.818V194.418C244.818 208.581 250.694 215.662 262.446 215.662C268.171 215.662 272.54 213.967 275.554 210.577C278.567 207.112 280.074 201.725 280.074 194.418V150.8H298.154V195.096C298.154 206.697 294.99 215.624 288.662 221.877C282.409 228.13 273.633 231.256 262.333 231.256ZM194.011 326.768C198.531 328.199 202.072 330.61 204.633 334C207.194 337.315 208.475 341.42 208.475 346.317C208.475 353.248 205.763 358.596 200.339 362.363C194.99 366.054 187.156 367.9 176.835 367.9H135.929V288.8H174.575C184.218 288.8 191.6 290.646 196.723 294.337C201.921 298.028 204.52 303.038 204.52 309.366C204.52 313.208 203.578 316.636 201.695 319.649C199.887 322.662 197.326 325.035 194.011 326.768ZM154.122 302.586V321.231H172.315C176.835 321.231 180.263 320.44 182.598 318.858C184.933 317.276 186.101 314.941 186.101 311.852C186.101 308.763 184.933 306.466 182.598 304.959C180.263 303.377 176.835 302.586 172.315 302.586H154.122ZM175.479 354.114C180.3 354.114 183.916 353.323 186.327 351.741C188.813 350.159 190.056 347.711 190.056 344.396C190.056 337.842 185.197 334.565 175.479 334.565H154.122V354.114H175.479ZM222.334 288.8H240.64V352.984H280.303V367.9H222.334V288.8ZM299.376 368.804C296.288 368.804 293.689 367.749 291.579 365.64C289.47 363.531 288.415 360.894 288.415 357.73C288.415 354.491 289.47 351.892 291.579 349.933C293.689 347.899 296.288 346.882 299.376 346.882C302.465 346.882 305.064 347.899 307.173 349.933C309.283 351.892 310.337 354.491 310.337 357.73C310.337 360.894 309.283 363.531 307.173 365.64C305.064 367.749 302.465 368.804 299.376 368.804Z" fill="white"/>
</svg>
